/* XPM */
static char *_9a951c3bcee43a6c77da80d0e4b9dd0sdSeLgMOkzWOZ5S1[] = {
/* columns rows colors chars-per-pixel */
"32 32 203 2 ",
"   c None",
".  c #5E3A05",
"X  c #5F3E0A",
"o  c #593604",
"O  c #613D05",
"+  c #613E09",
"@  c #654106",
"#  c #6A4507",
"$  c #6E4907",
"%  c #65440B",
"&  c #694709",
"*  c #6D4B0C",
"=  c #714C07",
"-  c #724D08",
";  c #765209",
":  c #7A5509",
">  c #7E5A0B",
",  c #634514",
"<  c #674913",
"1  c #6B4D1A",
"2  c #6C4F16",
"3  c #6F5111",
"4  c #6E5118",
"5  c #725415",
"6  c #7C5D13",
"7  c #73541A",
"8  c #7D5F1B",
"9  c #7E571A",
"0  c #7F601A",
"q  c #735522",
"w  c #795D29",
"e  c #785C27",
"r  c #815C0A",
"t  c #835E17",
"y  c #845B1B",
"u  c #85610B",
"i  c #8B650B",
"p  c #8E690B",
"a  c #906A0C",
"s  c #836214",
"d  c #8B6612",
"f  c #8C6912",
"g  c #84651A",
"h  c #8C641D",
"j  c #87681C",
"k  c #8B6C1A",
"l  c #866817",
"z  c #926D13",
"x  c #916D1A",
"c  c #917116",
"v  c #92711E",
"b  c #9A791E",
"n  c #9B7719",
"m  c #A17B1B",
"M  c #866324",
"N  c #896521",
"B  c #83622A",
"V  c #89692C",
"C  c #926E26",
"Z  c #9B6C29",
"A  c #957425",
"S  c #9C7523",
"D  c #9D7B23",
"F  c #9D7B2B",
"G  c #97762A",
"H  c #866834",
"J  c #8F733C",
"K  c #997833",
"L  c #A27C24",
"P  c #A1732A",
"I  c #A67A2A",
"U  c #A97C2D",
"Y  c #AB7C33",
"T  c #A17D31",
"R  c #B07F35",
"E  c #98803F",
"W  c #A98627",
"Q  c #AB832B",
"!  c #AE8B2A",
"~  c #A78325",
"^  c #B1842D",
"/  c #B48F2D",
"(  c #BA8E2F",
")  c #B5922B",
"_  c #B8912D",
"`  c #BC9D2F",
"'  c #B69927",
"]  c #AF8234",
"[  c #A68B34",
"{  c #A8863C",
"}  c #B38533",
"|  c #B58931",
" . c #B98C33",
".. c #B48A3C",
"X. c #BB8B3A",
"o. c #B28739",
"O. c #BC9432",
"+. c #BE9A33",
"@. c #B4913E",
"#. c #BF9E38",
"$. c #B79635",
"%. c #BDA22F",
"&. c #BEA131",
"*. c #C08D3A",
"=. c #C19536",
"-. c #C39C34",
";. c #C5943D",
":. c #C49D3A",
">. c #CA9D3C",
",. c #CA973F",
"<. c #C5A92D",
"1. c #C0A32D",
"2. c #C4A233",
"3. c #C8A435",
"4. c #C6A932",
"5. c #CAA932",
"6. c #C6A738",
"7. c #CCA33B",
"8. c #CDA93A",
"9. c #D2AA3A",
"0. c #CFB13A",
"q. c #CEB133",
"w. c #D4B534",
"e. c #D7B33E",
"r. c #DBBD3D",
"t. c #D9BC3B",
"y. c #DEC337",
"u. c #E7CA3D",
"i. c #98824F",
"p. c #A18846",
"a. c #AC8A42",
"s. c #AE9441",
"d. c #BC9141",
"f. c #BE9B4B",
"g. c #B49743",
"h. c #B19152",
"j. c #BCA34A",
"k. c #BCA054",
"l. c #AD9267",
"z. c #BCA968",
"x. c #BEA473",
"c. c #C19643",
"v. c #C89340",
"b. c #CD9C40",
"n. c #C29B46",
"m. c #C5A446",
"M. c #CDA343",
"N. c #C5A944",
"B. c #CFA945",
"V. c #CCAF4C",
"C. c #C3A24E",
"Z. c #D3A640",
"A. c #D2AC43",
"S. c #D6B443",
"D. c #D9B444",
"F. c #DBBC43",
"G. c #D6B64A",
"H. c #C3AA5C",
"J. c #C4A956",
"K. c #CDB65B",
"L. c #D2BA5D",
"P. c #D4B952",
"I. c #C4AF63",
"U. c #CFB961",
"Y. c #D8BF6F",
"T. c #C8B77F",
"R. c #C9B675",
"E. c #D0BD7C",
"W. c #DFC140",
"Q. c #DBC34D",
"!. c #DDC552",
"~. c #D6C057",
"^. c #E3C440",
"/. c #E9CE45",
"(. c #ECD041",
"). c #F5DA40",
"_. c #E3C85B",
"`. c #D5C26D",
"'. c #DECC6F",
"]. c #DDCA7C",
"[. c #D9C776",
"{. c #DFD17B",
"}. c #F4DD65",
"|. c #E3D37B",
" X c #E9D878",
".X c #CFBD83",
"XX c #C1B088",
"oX c #D2BD81",
"OX c #DAC68A",
"+X c #EADA8B",
"@X c #E9D883",
"#X c #E3D795",
"$X c #F6EA85",
"%X c #DCCCA6",
"&X c #E4D6A6",
"*X c #EFE3A5",
"=X c #F6EFA0",
"-X c #F3EDAD",
";X c #F2E7A4",
":X c #E9E3B4",
">X c #F2E8C7",
",X c #F4EFD2",
"<X c #FBF6DC",
/* pixels */
"                                                                ",
"                                                                ",
"                      x D Q Q o.} R ..g.k.                      ",
"                  { 5.5.7.7.=.O.| }  .-.W.~.[.                  ",
"              J XX].w.5.O.( ^ Q U U ^ -.u.N.`.#X-X              ",
"            K oX&X X5._ L v l s g f v b ) B.`.OX@X$X            ",
"          v L.E.%XH.b g 3 % + @ # - ; 6 g b @.T.k./. X          ",
"        s &.L.OXh.N ; + . . @ # $ - : > u s k @.V.%.Q.{.        ",
"        ! 8.L.a.8 < O . . @ # $ - : r u i p i k ) 4.) P.        ",
"      h +.S.@.0 % . . . @ # = ; : r r i a a p d k ) %.6.U.      ",
"      U O.+.N < . o . @ # $ ; : r i i a a p i r 0 b %.2.N.      ",
"    y | ) L 4 X * t g f c l > h p i a a i s h d > l W ' :.H.    ",
"    Z ,.7.g % o A e.e.y.u.u.-.;.=.m i i 6 Q v.U : 6 D 9.S.C.    ",
"    Y b.=.7 X o C A.! f b <.u.M.b.>.n s g.Z.v.I ; ; v -.A.n.    ",
"    o.B.} 1 X 9 R Z._ x r u <.S.;.>.5.I.*XG.,.U - - k ` A.n.    ",
"    X.Z.U , % y Y >.) x i i ' y.O.I 9.}.&X[ 7.U $ & l _ A.n.    ",
"    X.B.Y , & N } v. .n p p ' (.-.t W t.G G G.I & # g _ A.c.    ",
"    d.A.| 1 * s Y v.Q z i c y.).3.r r s - K _.Q @ % k O.A.d.    ",
"    f.A.2.q ; : S v.^ ~ ) q.u.).q.> ; - $ i.@X! + # v -.Z...    ",
"    f.A.S.V 7 r P X.X.:.6.2.) u.<.> - - # e R.[ . 5 L 8.Z.{     ",
"    I.B._.a.7 u p z d p i r r r r - - = # O % % % j / S.m.K     ",
"      P.P.Y.H 0 p p p r r r : ; - - # # # O O + 7 b 8.G.X.      ",
"      '.!.+XI.w t r r r r : ; - - & # O O O + 2 j ) F.A.F       ",
"         X+X>Xl.e t r r : ; - - & # # O O % 1 M Q r.F.$.        ",
"        =X;X<X&XT w 7 ; ; ; - & # O O O , 2 8 L w.^.6.C         ",
"          -X,XE.4.U B q 2 * & % + O X , 4 M s.4.&.8.F           ",
"            :X Xw.5. .K B q 1 , , < 4 M { E.].%.4.~             ",
"              |.Q.5.-.=.| U P Z P U / m.I..X`.2.A               ",
"                  K.m.:.=. .} O.Z.+.$.j.I.z.i.                  ",
"                      f.f.@.o.o.;.#.$.@.p.                      ",
"                                                                ",
"                                                                "
};
