/* XPM */
static char *_380713815524be0ba1ec57164f0697f6UCa0ytVSPW6H0kP[] = {
/* columns rows colors chars-per-pixel */
"64 64 235 2 ",
"   c None",
".  c #5E3A05",
"X  c #5C3C0A",
"o  c #593604",
"O  c #5A3F10",
"+  c #613D05",
"@  c #613E09",
"#  c #5D4315",
"$  c #5F4619",
"%  c #664206",
"&  c #6A4507",
"*  c #6E4907",
"=  c #64430B",
"-  c #694609",
";  c #6C4B0B",
":  c #674808",
">  c #714C07",
",  c #724D08",
"<  c #755007",
"1  c #765109",
"2  c #7A5509",
"3  c #7E5A0A",
"4  c #76590E",
"5  c #634512",
"6  c #6B4B15",
"7  c #644B1B",
"8  c #6A4D1A",
"9  c #664814",
"0  c #754E14",
"q  c #6D521B",
"w  c #6C5114",
"e  c #745514",
"r  c #7C5D14",
"t  c #73541A",
"y  c #755A1C",
"u  c #7B5C1B",
"i  c #7A5517",
"p  c #7D631C",
"a  c #7D6015",
"s  c #7F630F",
"d  c #6B5323",
"f  c #6E5729",
"g  c #7C5C24",
"h  c #745C2B",
"j  c #7B5E2A",
"k  c #755723",
"l  c #664E21",
"z  c #7C612D",
"x  c #7D6124",
"c  c #825D0A",
"v  c #835B1A",
"b  c #85610B",
"n  c #8A650B",
"m  c #8E690B",
"M  c #916B0C",
"N  c #846413",
"B  c #8B6611",
"V  c #83651B",
"C  c #8A631C",
"Z  c #856A1E",
"A  c #8C6A1A",
"S  c #8B6914",
"D  c #936C1C",
"F  c #926B19",
"G  c #8E711D",
"H  c #8C7217",
"J  c #947116",
"K  c #94741C",
"L  c #9A761B",
"P  c #9B781D",
"I  c #94791D",
"U  c #A1791E",
"Y  c #A0771F",
"T  c #865C22",
"R  c #8A6E21",
"E  c #83642C",
"W  c #876723",
"Q  c #916424",
"!  c #986B28",
"~  c #937323",
"^  c #9D7325",
"/  c #9A7B22",
"(  c #9B742A",
")  c #8A6D34",
"_  c #95763B",
"`  c #8F722E",
"'  c #A37C23",
"]  c #AB7B2E",
"[  c #A47927",
"{  c #A77C36",
"}  c #977E44",
"|  c #937E51",
" . c #A47E52",
".. c #9E8024",
"X. c #AA8124",
"o. c #AC822B",
"O. c #AC8C2A",
"+. c #A68825",
"@. c #B2852D",
"#. c #B48B2C",
"$. c #B88B2F",
"%. c #AD9229",
"&. c #B6942D",
"*. c #BA922D",
"=. c #B7992A",
"-. c #A98536",
";. c #B48533",
":. c #B98636",
">. c #BA8C34",
",. c #B4853A",
"<. c #BE8C3A",
"1. c #B78839",
"2. c #BD9333",
"3. c #BC9C32",
"4. c #B79739",
"5. c #AC9139",
"6. c #BDA22D",
"7. c #BDA237",
"8. c #C19D2E",
"9. c #C28D3C",
"0. c #C29534",
"q. c #C39B34",
"w. c #C5923E",
"e. c #C9953F",
"r. c #C59B3B",
"t. c #CB9C3E",
"y. c #C6A82D",
"u. c #C5A335",
"i. c #CDA33D",
"p. c #CEAA3C",
"a. c #C7AA37",
"s. c #D1A53F",
"d. c #D3AC3E",
"f. c #CDB135",
"g. c #D2B534",
"h. c #D5B23D",
"j. c #D9B43F",
"k. c #DBBC3E",
"l. c #D7BA38",
"z. c #D2B32D",
"x. c #E0BE37",
"c. c #DEC23C",
"v. c #DCC037",
"b. c #E1C43E",
"n. c #E6CA3D",
"m. c #E8CD3D",
"M. c #EED23E",
"N. c #F5D93F",
"B. c #F4D93F",
"V. c #9D8648",
"C. c #93815D",
"Z. c #A98946",
"A. c #B68D43",
"S. c #AC9247",
"D. c #B69548",
"F. c #A48C53",
"G. c #B49A57",
"H. c #AD9656",
"J. c #B9A146",
"K. c #BBA459",
"L. c #B5986C",
"P. c #B9A768",
"I. c #BBA872",
"U. c #C79140",
"Y. c #C99540",
"T. c #CB9B41",
"R. c #C49D46",
"E. c #C39F5D",
"W. c #CEA342",
"Q. c #CDAA44",
"!. c #C8A94C",
"~. c #D4AB41",
"^. c #D1A845",
"/. c #CDB348",
"(. c #D5B343",
"). c #D9B440",
"_. c #DDBC41",
"`. c #D5B54A",
"'. c #C5A955",
"]. c #D2B451",
"[. c #D5BA52",
"{. c #D8BE54",
"}. c #C8B05E",
"|. c #C3AC66",
" X c #C9B566",
".X c #D6BF69",
"XX c #C2AE74",
"oX c #C8B779",
"OX c #D8BF71",
"+X c #DEC246",
"@X c #DCC45A",
"#X c #DAC254",
"$X c #E2C440",
"%X c #E5CA41",
"&X c #E4C949",
"*X c #F5D941",
"=X c #E3CB55",
"-X c #E9D35F",
";X c #F0D74A",
":X c #D7C266",
">X c #DBC977",
",X c #CEC17D",
"<X c #E2CB65",
"1X c #E9D466",
"2X c #ECD97B",
"3X c #E5D478",
"4X c #E3CB79",
"5X c #FBE564",
"6X c #F9E15A",
"7X c #B9AB85",
"8X c #C9BA8B",
"9X c #C8BA8D",
"0X c #CBBEA5",
"qX c #D8C684",
"wX c #DCD18A",
"eX c #D7C695",
"rX c #DED397",
"tX c #EBDA88",
"yX c #E5DA98",
"uX c #E1CE91",
"iX c #EDE39A",
"pX c #F3E99A",
"aX c #F8E98E",
"sX c #DED1A9",
"dX c #E5D5B1",
"fX c #EBE5A4",
"gX c #F3E8A9",
"hX c #F3E9B6",
"jX c #FAF7AD",
"kX c #F5EEC8",
"lX c #F9F2CB",
"zX c #F9F4D5",
"xX c #EFE2C8",
"cX c #FCF8E7",
"vX c #E6DDC4",
/* pixels */
"                                                                                                                                ",
"                                                                                                                                ",
"                                                                                                                                ",
"                                                          = 6 t g g E                                                           ",
"                                                - 0 v F ( ] ;.;.;.,.,.{ -.Z.Z.F.                                                ",
"                                          = c ' ;.q.s.s.$.$.t.<.[ 9.;.] 9.r.q.!.!.K.P.                                          ",
"                                      6 L y.l.x.p.q.~.s.2.>.t.0.o.w.[ :.e.;./ d.c.+X#X:X,X                                      ",
"                                  6 } {.m.*Xz.8.p.*.s.s.0.@.t.o.@.w.[ >.e.@.X.a.+Xc.&X#X>XwXrX                                  ",
"                                ) 0XxX].y.n.z.X.q.*.*.q.>.@.w.#.@.9.] ] 9.^ #.j.k.%X+X-.D.3XiXiX                                ",
"                            - F.dXsXhX`.=.l.x.8.q.0.:.@.X.' ' U Y Y U ] @.>.q.j.$X%X7.5..XtXqXsXjXjX                            ",
"                          6 G.hX0XXXgX1Xz.z.l.0.@.Y L K L L K G K K L J J J P X.q.j.Q.<X2XtXP.I.gXpXjX                          ",
"                        e '.yXeXxXvX4X5Xx.8.' U L L K Z p y e e e y r V Z H K J J U 3.@X4X XXXhXqX#X5XjX                        ",
"                      e !.3XK.XX9XcXyX).X.L I K V y 9 % . . . % % : & * , e u V G K H ..!.D.qXrXV.J.n.6XiX                      ",
"                    ; 3.[.3XoX|.8XdXE.D L ~ p w = . o . . + % % & : > , < 1 1 2 r p G K J 4.qX8XF.4.M.M.-XiX                    ",
"                  % +.f.R.3XgXrXsXZ.J G V 8 = . . . . . + % % & : * , 1 1 2 3 c 3 3 a Z K S o.qXK.+Xz.%.v.1XiX                  ",
"                  D h._.4. X>XeX-.A R y = % + . o . . % % % & * > , , 1 2 3 3 c n n b b p K J ' :X/.I =.c.+X<X                  ",
"                4 t.3.+X<X}.|.{ A W w = . . . . . . + % % & * * > < < < 3 c c b n n m M S p A J ' k.y.l.%.+.+X>X                ",
"              - o.~.=.).@X>X{ A V 8 % % . . . . . + % % & * > , 1 < 3 3 c c b b n m M M M n V D J X.l.6...+.a.@XqX              ",
"              C r.p.h.a.!.,.V V q % . . . . . . + % & & * > , , 2 2 3 c c c n n m M M M m m n V K H #.g.I 7.k.).:X              ",
"            - ;.@.u.k.=X!.C W 8 = . . . . . . % % & & * , , < 2 2 c c c b n n m M M M m m n n B p L J q.l.7.O.O.].,X            ",
"            v t.#.X.u.u.^ p y = . . . . . . % % & & * * , 1 1 2 c c c c n n m M M M m m n n n c s Z K U a.%.k.u.d. X            ",
"          - ] t.q.q.3.;.v p # + . . . . . % % % * * > < 1 2 2 3 c c c n m m M M M m m n n c c c c a G K #.7.).u.&./.XX          ",
"          0 >.^ X.&.h.Q u q X . . . o . . % % % & & > < 1 2 2 3 c c n n m M M M m m m b c c c c 3 3 V K U u.+./ +.r.|.          ",
"          Q e.>.&.X.#.v y # . . X ~ / / ....+.+.%.+.P N , 4 ( ^ J n n M M M M m n n 2 r ^ ! ^ B 3 3 r G J #.O.f.a.i.'.          ",
"        @ ] Y.W.s.s.' i q X . o # i.j.)._.$X%Xn.*X*XN.b.&.( T.Y.t.*.J M M M m n n 3 y ,.U.U.U.D 2 2 4 Z L ' a.j.).~.!.P.        ",
"        ; <.Y.W.~.s.v t $ . . o # i.d.j.).c.$X%X%XB.N.M.%Xj.i.Y.e.s.0.J M m m n 3 e &.Y.U.w.w.Q 2 1 1 p L L d.k.).d.W.G.        ",
"        v 9.t.W.~.0.i t O . . . 5 r.~.j.p./ / / +.6.m.N.n._.s.U.e.s.W.0.M n n c e 7.~.T.w.9.U.D < < 1 e G K q.j.).d.W.G.        ",
"        Q 9.Y.W.~.] t 8 X + + + 5 e.s.(.u.1 , , < 1 s y.M.b.(.T.e.e.s.s.*.m c e I.1X_.i.Y.U.U.F < < 1 ; R J #.j.d.`.t.D.        ",
"        ( 9.!.(.d.! t 7 X @ @ @ 6 9.W.d.t.3 4 3 3 3 3 4 y.M.k.i.w.t.t.W.j.%.4 7XkX2X&Xd.t.U.U.C < , > ; x I X.j.~.`.W.D.        ",
"      t ] Y.e.s.d.Q 8 $ @ o T ,.,.w.t.d.d.u.u.L c b n 3 I n.c.d.e.9.t.s.d.k.f.hXzXpX#Xp.T.U.U.F , , * * p L ' d.~.s.t.A.V.      ",
"      y { U.!.W.s.v 0 5 + @ ! ] ] 9.Y.W.d.3.&.n b n n n s c.n.j.W.[ ! i.d.k.*XaXzXhX-.&.~.e.U.C * * * & r I P d.d.[.^.A.V.      ",
"      E 1.Y.].~.t.v 9 O + - - - t 9.U.T.q.r 3 c n n m m s v.m.+X~.] 4 [ W.d.n.6XlX7X9 4.).e.w.C * * & & y L U s.d.^.T.A.V.      ",
"      E ,.U.r.p.t.v 5 O - & ; e T 9.w.e.r.A A n n m M m b b.M.b.).@.c 1 o.^.c.*X Xp : J.k.i.Y.C & & & % y I P i.j.W.T.A.}       ",
"      ) ,.U.[.~.s.T 8 # * = ! w.U.9.U.Y.i.d.p.P m M M n H M.*X%X_.@.c c e 2._.a.b < ; K.&Xd.Y.C % & & % u ~ U d.p.{.W.1.}       ",
"      _ A.Y.W.^.d.Q q 7 ; ; Q Q ! 9.U.Y.<.X./ m M M m 3 =.N.N.M.$X&.3 c 2 r o.N < 1 ; P.1Xj.i.v % % % @ p L ' d.~.i.Y.Z._       ",
"        Z.e.W.^.).[ 8 7 , 1 < , i <.9.w.1.s n M M n s ..c.B.N.M.%X&.3 2 2 2 1 1 < < 9 7X2X_.s.C % + + - Z P X.d.Q.`.Y.,.        ",
"        S.Y.].`.).@.t l ; 3 3 2 r <.U.U.,.v n S N H %.+Xm.*X*XB.M.=.1 c 2 2 1 1 , , - 9XiX=X(.v + % + = R L #.d.p.].Y.-.        ",
"        S.T.t.i.k.r.k d 8 2 3 c v <.U.U.U.<.r.u.f.l.+Xc.%X%XB.N.M.=.1 2 2 1 1 , , > = 9XgX1X_.A + + . 6 ~ L 0.j.^.t.Y._         ",
"        G.r.r.]._.(.T h 7 2 c c v 9.U.U.Y.Y.W.d.j.k.k.b.l.g.M.N.N.3.1 2 1 1 , > > - = | hXtX&XV . + . y / P i.d.].^.<.)         ",
"        L.R.W.[._.&X{ k d 4 b b N ,.:.:.:.:.0.r.q.7.&.X.B P l.x.n.%.1 1 < , > > > - - 5 V.XX].V o . = R I X.d.j.Q.W.1.E         ",
"          '.W.i.(.=X!.T f 8 b n n B n B B b B b c c c c c c c v c 3 < < , > * * * & & % + @ = + . X t / L *.j./.(.T.{           ",
"           XQ.!.=X=X:X` j f c M M M M m m m n b c c c c 1 c c , < < , , , > * & & % % + @ . . . = 9 W ~ ' s.j.`.[.e.`           ",
"          oX].d.+X=X2XE.g h q n M M M m m n n b c c c c c , c c < , , , * * & & % % % + + . . - = y ~ K $.k.j.d.s.,.x           ",
"            .Xj.f.@X3XuX_ j f v M M m m n n b c c c c c , c > , , , , > * & & & % + + + . . @ 9 q W L U d.j.[.[.i.(             ",
"            wX#X).1X2XgX8XT z d N M n n c c c c c c c > c , c > , , * * & & % % % + + o @ @ 9 6 p ~ A 2.c.j.).(.2.g             ",
"              3X&X@X:XyXhXL.h z d b n n n c c c c , > c > c + c , * * & & % % + + + + @ @ 6 6 k R A o.k.l.[.(.d.(               ",
"              fX1X=X<XiXkXxX .T h d c c c c c c c c c > > , > + * & & & % % % + + o @ @ 6 8 k W A P h.b.).#X).4.k               ",
"                pX2XtXgXkXcXvX_ E h d 2 c c 3 3 , c > c , > c + * & & & % + + . + + @ 6 8 t V A D d.b.c._._.u.W                 ",
"                  pXtXhXlXcXcX4X! E z d t 3 3 1 3 1 1 , > > > > & & % + + + . . X = 9 8 t V N K d.m.%Xk.k.j.(                   ",
"                  jXpXgXlXcXzX2X8.[ j z f 8 1 1 1 , , > > > + > % % % + + . . @ = 9 q g W v [ *.g.m.%Xb.k.-.y                   ",
"                    gXhXzXcXlX'.%.l.o.T z h f 8 6 , > > c + @ @ % % @ + + o X 5 7 t g u r -.f.l...6.c._.3.u                     ",
"                      gXxXcXI.7.y.l.&.:.Q j h h d 8 9 - + 0 @ @ + + . X X 5 7 q y u i Q E.{.n.%.%.u.k.u.u                       ",
"                        fXzXrX#XM.z.=.f.0.] Q g k k k l 7 7 $ O 5 # 5 7 8 q t t e T A.uXgXS.%.f.y.c.7.u                         ",
"                          sXfX5Xy.=.b.8.$.0.0.] ! T k k k 8 8 9 8 8 8 8 6 0 i ! A.>XuXhXjX@X/ y.+X=.u                           ",
"                            wX3Xb.g.z.*.q.s.0.@.<.;.] ^ Q T T v 0 v v Q ^ &.~.:X.XK.XX8XgX1Xg.c.+.y                             ",
"                                >X=Xl.*.*.i.8.q.r.' @.w.] U.] 9.9.q.i.t.u.c.4.'.'.|.I.I.P./.f.~                                 ",
"                                  oX.X/.d.8.#.s.t.@.e.@.[ :.;.U.t.W.d.K D 3.4.J. XG.P.sXP.-.u                                   ",
"                                      XX'.!.t.t.0.0.0.L [ ;.;.Y.s.s.d.o.u.3.7.5.4X>XI.F.E                                       ",
"                                          P.K.K.R.T.w.<.:.@.] 1.s.~.).3.l.7.[.K.H._ E                                           ",
"                                                H.H.S.D.A.A.-.1.9.r.4.4.5.-.` z                                                 ",
"                                                          V.V._ _ _ )                                                           ",
"                                                                                                                                ",
"                                                                                                                                ",
"                                                                                                                                "
};
