/* XPM */
static char *_38ba066f894415edfed3dbe194e8d79cfrXAC7vDHlzVNvx[] = {
/* columns rows colors chars-per-pixel */
"16 16 164 2 ",
"   c None",
".  c #5D3904",
"X  c #633F05",
"o  c #613E08",
"O  c #654106",
"+  c #6C4707",
"@  c #6D4807",
"#  c #6F4A07",
"$  c #634008",
"%  c #62400B",
"&  c #664208",
"*  c #674408",
"=  c #67450A",
"-  c #62410C",
";  c #694709",
":  c #6D490B",
">  c #6E4B0E",
",  c #6E4C0D",
"<  c #714B05",
"1  c #704D09",
"2  c #734E08",
"3  c #704F0E",
"4  c #744F0C",
"5  c #7A5508",
"6  c #7B5508",
"7  c #79550B",
"8  c #7C5A0D",
"9  c #7D5A0F",
"0  c #684710",
"q  c #6D4B10",
"w  c #714D13",
"e  c #715015",
"r  c #745416",
"t  c #795711",
"y  c #795414",
"u  c #7D5B12",
"i  c #77571E",
"p  c #7C5B1C",
"a  c #805B09",
"s  c #835F0D",
"d  c #845F11",
"f  c #815F16",
"g  c #85600A",
"h  c #8D670B",
"j  c #89640F",
"k  c #8A640E",
"l  c #8D670D",
"z  c #8E680A",
"x  c #8B680E",
"c  c #90690F",
"v  c #846211",
"b  c #8C6512",
"n  c #8B6912",
"m  c #8C6A17",
"M  c #816018",
"N  c #81601A",
"B  c #87621F",
"V  c #8E6D18",
"C  c #906911",
"Z  c #957312",
"A  c #957319",
"S  c #865F22",
"D  c #856623",
"F  c #826324",
"G  c #8D6823",
"H  c #8E6B24",
"J  c #966E28",
"K  c #977120",
"L  c #997321",
"P  c #9E7A21",
"I  c #99792C",
"U  c #9C7F31",
"Y  c #A07D25",
"T  c #A17F25",
"R  c #A67F24",
"E  c #A0792A",
"W  c #A57929",
"Q  c #AC7C2C",
"!  c #A3821D",
"~  c #A48023",
"^  c #AA8723",
"/  c #A88226",
"(  c #A98227",
")  c #AA8A26",
"_  c #A5862F",
"`  c #AC862D",
"'  c #AE8B2A",
"]  c #AA8A2C",
"[  c #AF8B2D",
"{  c #B3882F",
"}  c #B28C2F",
"|  c #AE9029",
" . c #B1902D",
".. c #B7962F",
"X. c #B8972C",
"o. c #B9982C",
"O. c #B9982D",
"+. c #A68431",
"@. c #A48432",
"#. c #AD8A33",
"$. c #AB8C3C",
"%. c #B18130",
"&. c #B28433",
"*. c #B48630",
"=. c #B78636",
"-. c #B68737",
";. c #B38A31",
":. c #B78A32",
">. c #BA8E30",
",. c #B98C36",
"<. c #B59432",
"1. c #B99030",
"2. c #BB9339",
"3. c #BB913B",
"4. c #B8923B",
"5. c #B9953B",
"6. c #B99D3D",
"7. c #BFA22B",
"8. c #C09536",
"9. c #C09D37",
"0. c #C0943D",
"q. c #C19938",
"w. c #C7A634",
"e. c #C8A733",
"r. c #CBAD35",
"t. c #C6A339",
"y. c #C9A339",
"u. c #C4A83C",
"i. c #C6A83E",
"p. c #CCAB3D",
"a. c #CEB03F",
"s. c #D5B935",
"d. c #D8BB36",
"f. c #AF9344",
"g. c #AE9346",
"h. c #B69B5A",
"j. c #B59F5C",
"k. c #B49E63",
"l. c #BDA561",
"z. c #B7A170",
"x. c #C29B40",
"c. c #C49B40",
"v. c #C79F41",
"b. c #C4A046",
"n. c #C9A243",
"m. c #CAA546",
"M. c #CDA845",
"N. c #C4A749",
"B. c #CEB14F",
"V. c #CEB54D",
"C. c #D1B84F",
"Z. c #C9AD51",
"A. c #C8AF52",
"S. c #D1B453",
"D. c #CDB76A",
"F. c #D0B865",
"G. c #DBC75C",
"H. c #D7C57A",
"J. c #D5C17E",
"K. c #E7D57F",
"L. c #E2D485",
"P. c #E8DB8A",
"I. c #E7D9A5",
"U. c #F4EDAE",
/* pixels */
"                                ",
"          X.1.:.&.2.C.          ",
"      k.J.w.( L K ( i.H.P.      ",
"    ] D.h.M * * 1 8 V f.V.G.    ",
"    9.$.q . X # 5 g l n ) i.    ",
"  W } r > u v d k z l b m ..N.  ",
"  ,.E - ` O.7.y.>.A #.%.8 ' M.  ",
"  0.G w ,.~ x e.8.B.F.*.4 T n.  ",
"  v.H y -.R Z d.^ P U 5.: T v.  ",
"  m.+.t Q ;...s.! < F g., [ x.  ",
"  S.Z.D l C k g 5 + & 0 N t.2.  ",
"    K.z.M a 5 4 + & o e  .p.    ",
"    U.I._ p 3 = - - i +.r.<.    ",
"      L.M.;.L S B I l.A.|       ",
"          b.2.-.q.6.j.          ",
"                                "
};
